<svg width="14" height="20" viewBox="0 0 14 20" fill="none" xmlns="http://www.w3.org/2000/svg">
<path d="M2 19C1.45 19 0.979333 18.8043 0.588 18.413C0.196666 18.0217 0.000666667 17.5507 0 17V6C0 5.45 0.196 4.97933 0.588 4.588C0.98 4.19667 1.45067 4.00067 2 4H4V2C4 1.45 4.196 0.979333 4.588 0.588C4.98 0.196667 5.45067 0.000666667 6 0H8C8.55 0 9.021 0.196 9.413 0.588C9.805 0.98 10.0007 1.45067 10 2V4H12C12.55 4 13.021 4.196 13.413 4.588C13.805 4.98 14.0007 5.45067 14 6V17C14 17.55 13.8043 18.021 13.413 18.413C13.0217 18.805 12.5507 19.0007 12 19C12 19.2833 11.904 19.521 11.712 19.713C11.52 19.905 11.2827 20.0007 11 20C10.7173 19.9993 10.48 19.9033 10.288 19.712C10.096 19.5207 10 19.2833 10 19H4C4 19.2833 3.904 19.521 3.712 19.713C3.52 19.905 3.28267 20.0007 3 20C2.71733 19.9993 2.48 19.9033 2.288 19.712C2.096 19.5207 2 19.2833 2 19ZM4 16H6V7H4V16ZM8 16H10V7H8V16ZM6 4H8V2H6V4Z" fill="#F37023"/>
</svg>
