<svg width="20" height="20" viewBox="0 0 20 20" fill="none" xmlns="http://www.w3.org/2000/svg">
<path d="M7.50002 0.833344V2.50001H12.5V0.833344H14.1667V2.50001H17.5C17.9603 2.50001 18.3334 2.87311 18.3334 3.33334V16.6667C18.3334 17.1269 17.9603 17.5 17.5 17.5H2.50002C2.03979 17.5 1.66669 17.1269 1.66669 16.6667V3.33334C1.66669 2.87311 2.03979 2.50001 2.50002 2.50001H5.83335V0.833344H7.50002ZM16.6667 9.16668H3.33335V15.8333H16.6667V9.16668ZM9.16669 10.8333V14.1667H5.00002V10.8333H9.16669ZM5.83335 4.16668H3.33335V7.50001H16.6667V4.16668H14.1667V5.83334H12.5V4.16668H7.50002V5.83334H5.83335V4.16668Z" fill="#7F8387"/>
</svg>
