<svg width="20" height="20" viewBox="0 0 20 20" fill="none" xmlns="http://www.w3.org/2000/svg">
<g clip-path="url(#clip0_1993_22260)">
<path d="M15.8337 5.83398H20.0003V7.50065H15.8337V5.83398ZM14.167 10.0007H20.0003V11.6673H14.167V10.0007ZM16.667 14.1673H20.0003V15.834H16.667V14.1673ZM1.66699 18.334C1.66699 16.5659 2.36937 14.8702 3.61961 13.6199C4.86986 12.3697 6.56555 11.6673 8.33366 11.6673C10.1018 11.6673 11.7975 12.3697 13.0477 13.6199C14.2979 14.8702 15.0003 16.5659 15.0003 18.334H13.3337C13.3337 17.0079 12.8069 15.7361 11.8692 14.7984C10.9315 13.8608 9.65974 13.334 8.33366 13.334C7.00758 13.334 5.73581 13.8608 4.79813 14.7984C3.86044 15.7361 3.33366 17.0079 3.33366 18.334H1.66699ZM8.33366 10.834C5.57116 10.834 3.33366 8.59648 3.33366 5.83398C3.33366 3.07148 5.57116 0.833984 8.33366 0.833984C11.0962 0.833984 13.3337 3.07148 13.3337 5.83398C13.3337 8.59648 11.0962 10.834 8.33366 10.834ZM8.33366 9.16732C10.1753 9.16732 11.667 7.67565 11.667 5.83398C11.667 3.99232 10.1753 2.50065 8.33366 2.50065C6.49199 2.50065 5.00033 3.99232 5.00033 5.83398C5.00033 7.67565 6.49199 9.16732 8.33366 9.16732Z" fill="#909090"/>
</g>
<defs>
<clipPath id="clip0_1993_22260">
<rect width="20" height="20" fill="white"/>
</clipPath>
</defs>
</svg>
