<svg width="24" height="24" viewBox="0 0 24 24" fill="none" xmlns="http://www.w3.org/2000/svg">
<path d="M13.372 11.0131L13.986 11.6271L7.946 17.6671H7.333V17.0531L13.372 11.0131ZM15.771 7.00015C15.5961 7.00106 15.4285 7.07033 15.304 7.19315L14.084 8.41315L16.584 10.9131L17.804 9.69315C17.8658 9.63147 17.9148 9.55821 17.9483 9.47756C17.9817 9.39691 17.999 9.31046 17.999 9.22315C17.999 9.13583 17.9817 9.04938 17.9483 8.96873C17.9148 8.88808 17.8658 8.81482 17.804 8.75315L16.244 7.19315C16.1821 7.13128 16.1084 7.08235 16.0274 7.04922C15.9464 7.01609 15.8595 6.9994 15.772 7.00015M13.372 9.12715L6 16.5001V19.0001H8.5L15.872 11.6271L13.372 9.12715Z" fill="#F37023"/>
<path d="M19 1.00012H17V3.00012H7V1.00012H5V3.00012H4C3.46957 3.00012 2.96086 3.21084 2.58579 3.58591C2.21071 3.96098 2 4.46969 2 5.00012V21.0001C2 21.5306 2.21071 22.0393 2.58579 22.4143C2.96086 22.7894 3.46957 23.0001 4 23.0001H20C20.5304 23.0001 21.0391 22.7894 21.4142 22.4143C21.7893 22.0393 22 21.5306 22 21.0001V5.00012C22 4.46969 21.7893 3.96098 21.4142 3.58591C21.0391 3.21084 20.5304 3.00012 20 3.00012H19V1.00012ZM4 21.0001V5.00012H20V21.0001H4Z" fill="#F37023"/>
</svg>
