<svg width="20" height="20" viewBox="0 0 20 20" fill="none" xmlns="http://www.w3.org/2000/svg">
<path d="M1.66666 4.99992C1.66666 4.55789 1.84225 4.13397 2.15481 3.82141C2.46737 3.50885 2.8913 3.33325 3.33332 3.33325H16.6667C17.1087 3.33325 17.5326 3.50885 17.8452 3.82141C18.1577 4.13397 18.3333 4.55789 18.3333 4.99992V14.9999C18.3333 15.4419 18.1577 15.8659 17.8452 16.1784C17.5326 16.491 17.1087 16.6666 16.6667 16.6666H3.33332C2.8913 16.6666 2.46737 16.491 2.15481 16.1784C1.84225 15.8659 1.66666 15.4419 1.66666 14.9999V4.99992ZM4.59916 4.99992L9.99999 9.72575L15.4008 4.99992H4.59916ZM16.6667 6.10742L10.5492 11.4608C10.3972 11.5939 10.202 11.6673 9.99999 11.6673C9.79795 11.6673 9.60279 11.5939 9.45082 11.4608L3.33332 6.10742V14.9999H16.6667V6.10742Z" fill="black"/>
</svg>
