<svg width="28" height="28" viewBox="0 0 28 28" fill="none" xmlns="http://www.w3.org/2000/svg">
<path fill-rule="evenodd" clip-rule="evenodd" d="M3.5 6.41667C3.5 5.64312 3.80729 4.90125 4.35427 4.35427C4.90125 3.80729 5.64312 3.5 6.41667 3.5H21C21.9283 3.5 22.8185 3.86875 23.4749 4.52513C24.1313 5.1815 24.5 6.07174 24.5 7V23.3333C24.5001 23.5409 24.4447 23.7448 24.3397 23.9238C24.2347 24.1029 24.0838 24.2507 23.9026 24.352C23.7214 24.4533 23.5165 24.5044 23.309 24.5001C23.1014 24.4957 22.8988 24.4361 22.722 24.3273L19.5417 22.3697L16.3613 24.3273C16.1775 24.4404 15.9659 24.5003 15.75 24.5003C15.5341 24.5003 15.3225 24.4404 15.1387 24.3273L11.9583 22.3697L8.778 24.3273C8.6012 24.4361 8.39857 24.4957 8.19103 24.5001C7.98349 24.5044 7.77855 24.4533 7.59736 24.352C7.41617 24.2507 7.26529 24.1029 7.16028 23.9238C7.05527 23.7448 6.99994 23.5409 7 23.3333V16.3333H4.66667C4.35725 16.3333 4.0605 16.2104 3.84171 15.9916C3.62292 15.7728 3.5 15.4761 3.5 15.1667V6.41667ZM9.33333 21.245L11.347 20.006C11.5308 19.8929 11.7425 19.833 11.9583 19.833C12.1742 19.833 12.3858 19.8929 12.5697 20.006L15.75 21.9637L18.9303 20.006C19.1142 19.8929 19.3258 19.833 19.5417 19.833C19.7575 19.833 19.9692 19.8929 20.153 20.006L22.1667 21.245V7C22.1667 6.69058 22.0438 6.39383 21.825 6.17504C21.6062 5.95625 21.3094 5.83333 21 5.83333H9.275C9.31389 6.02233 9.33333 6.21678 9.33333 6.41667V21.245ZM6.41667 5.83333C6.26196 5.83333 6.11358 5.89479 6.00419 6.00419C5.89479 6.11358 5.83333 6.26196 5.83333 6.41667V14H7V6.41667C7 6.26196 6.93854 6.11358 6.82915 6.00419C6.71975 5.89479 6.57138 5.83333 6.41667 5.83333ZM11.6667 10.5C11.6667 10.1906 11.7896 9.89384 12.0084 9.67504C12.2272 9.45625 12.5239 9.33333 12.8333 9.33333H18.6667C18.9761 9.33333 19.2728 9.45625 19.4916 9.67504C19.7104 9.89384 19.8333 10.1906 19.8333 10.5C19.8333 10.8094 19.7104 11.1062 19.4916 11.325C19.2728 11.5438 18.9761 11.6667 18.6667 11.6667H12.8333C12.5239 11.6667 12.2272 11.5438 12.0084 11.325C11.7896 11.1062 11.6667 10.8094 11.6667 10.5ZM11.6667 15.1667C11.6667 14.8572 11.7896 14.5605 12.0084 14.3417C12.2272 14.1229 12.5239 14 12.8333 14H17.5C17.8094 14 18.1062 14.1229 18.325 14.3417C18.5437 14.5605 18.6667 14.8572 18.6667 15.1667C18.6667 15.4761 18.5437 15.7728 18.325 15.9916C18.1062 16.2104 17.8094 16.3333 17.5 16.3333H12.8333C12.5239 16.3333 12.2272 16.2104 12.0084 15.9916C11.7896 15.7728 11.6667 15.4761 11.6667 15.1667Z" fill="#F37023"/>
</svg>
