<svg width="20" height="20" viewBox="0 0 20 20" fill="none" xmlns="http://www.w3.org/2000/svg">
<path d="M12.5 5.83333H7.49999M12.5 9.16667H7.49999M12.5 12.5H9.16666M4.16666 2.5H15.8333V17.5L14.9733 16.7633C14.6713 16.5045 14.2866 16.3622 13.8887 16.3622C13.4909 16.3622 13.1062 16.5045 12.8042 16.7633L11.9442 17.5L11.085 16.7633C10.7829 16.5042 10.398 16.3618 9.99999 16.3618C9.60198 16.3618 9.21711 16.5042 8.91499 16.7633L8.05582 17.5L7.19582 16.7633C6.89376 16.5045 6.50906 16.3622 6.11124 16.3622C5.71342 16.3622 5.32872 16.5045 5.02666 16.7633L4.16666 17.5V2.5Z" stroke="black" stroke-width="1.25" stroke-linecap="round" stroke-linejoin="round"/>
</svg>
