<svg width="20" height="20" viewBox="0 0 20 20" fill="none" xmlns="http://www.w3.org/2000/svg">
<g clip-path="url(#clip0_1993_22244)">
<path d="M16.667 14.166H18.3337V15.8327H1.66699V14.166H3.33366V8.33268C3.33366 6.56457 4.03604 4.86888 5.28628 3.61864C6.53652 2.36839 8.23221 1.66602 10.0003 1.66602C11.7684 1.66602 13.4641 2.36839 14.7144 3.61864C15.9646 4.86888 16.667 6.56457 16.667 8.33268V14.166ZM15.0003 14.166V8.33268C15.0003 7.0066 14.4735 5.73483 13.5359 4.79715C12.5982 3.85947 11.3264 3.33268 10.0003 3.33268C8.67424 3.33268 7.40247 3.85947 6.46479 4.79715C5.52711 5.73483 5.00032 7.0066 5.00032 8.33268V14.166H15.0003ZM7.50032 17.4993H12.5003V19.166H7.50032V17.4993Z" fill="#909090"/>
</g>
<defs>
<clipPath id="clip0_1993_22244">
<rect width="20" height="20" fill="white"/>
</clipPath>
</defs>
</svg>
