<svg width="12" height="13" viewBox="0 0 12 13" fill="none" xmlns="http://www.w3.org/2000/svg">
<path d="M11.1036 6.23086L11.7476 5.11786C11.825 4.98395 11.8461 4.82478 11.8062 4.67536C11.7662 4.52593 11.6686 4.39848 11.5347 4.32103L10.4206 3.67703V2.39369C10.4206 2.23898 10.3591 2.09061 10.2497 1.98121C10.1403 1.87182 9.99193 1.81036 9.83722 1.81036H8.55447L7.91106 0.696775C7.83374 0.562801 7.70637 0.465022 7.55697 0.424942C7.48296 0.405109 7.40576 0.400053 7.32979 0.410062C7.25382 0.420071 7.18057 0.444949 7.11422 0.483275L6.00006 1.12728L4.88589 0.482692C4.75191 0.40534 4.59269 0.384378 4.44326 0.424417C4.29382 0.464456 4.16641 0.562216 4.08905 0.696192L3.44505 1.81036H2.1623C2.00759 1.81036 1.85922 1.87182 1.74983 1.98121C1.64043 2.09061 1.57897 2.23898 1.57897 2.39369V3.67644L0.464805 4.32044C0.398438 4.35879 0.34028 4.40985 0.293657 4.47069C0.247033 4.53153 0.212858 4.60097 0.193084 4.67502C0.17331 4.74908 0.168326 4.82631 0.178416 4.90229C0.188506 4.97828 0.213472 5.05153 0.251888 5.11786L0.895888 6.23086L0.251888 7.34386C0.174881 7.47789 0.153988 7.63694 0.193764 7.78631C0.233539 7.93569 0.330757 8.06328 0.464221 8.14127L1.57839 8.78528V10.068C1.57839 10.2227 1.63985 10.3711 1.74924 10.4805C1.85864 10.5899 2.00701 10.6514 2.16172 10.6514H3.44505L4.08905 11.7655C4.1407 11.8538 4.21443 11.9271 4.30301 11.9783C4.39158 12.0294 4.49194 12.0566 4.59422 12.0572C4.69572 12.0572 4.79664 12.0304 4.88647 11.9784L5.99947 11.3344L7.11364 11.9784C7.24755 12.0558 7.40671 12.0769 7.55614 12.037C7.70556 11.997 7.83302 11.8994 7.91047 11.7655L8.55389 10.6514H9.83664C9.99135 10.6514 10.1397 10.5899 10.2491 10.4805C10.3585 10.3711 10.42 10.2227 10.42 10.068V8.78528L11.5341 8.14127C11.6005 8.10292 11.6587 8.05187 11.7053 7.99103C11.7519 7.93018 11.7861 7.86075 11.8059 7.78669C11.8256 7.71264 11.8306 7.63541 11.8205 7.55942C11.8104 7.48344 11.7855 7.41019 11.7471 7.34386L11.1036 6.23086ZM4.54114 3.30836C4.77328 3.30844 4.99588 3.40073 5.15998 3.56493C5.32407 3.72914 5.41622 3.9518 5.41614 4.18394C5.41606 4.41608 5.32377 4.63869 5.15956 4.80278C4.99536 4.96688 4.7727 5.05902 4.54056 5.05894C4.30841 5.05886 4.08581 4.96657 3.92172 4.80237C3.75762 4.63816 3.66548 4.4155 3.66555 4.18336C3.66563 3.95122 3.75792 3.72861 3.92213 3.56452C4.08633 3.40042 4.309 3.30828 4.54114 3.30836ZM4.71614 8.90836L3.7828 8.20894L7.2828 3.54227L8.21614 4.24169L4.71614 8.90836ZM7.45781 9.14169C7.34286 9.14165 7.22905 9.11897 7.12287 9.07495C7.01669 9.03093 6.92022 8.96642 6.83897 8.88512C6.75771 8.80381 6.69327 8.7073 6.64932 8.60109C6.60537 8.49488 6.58277 8.38105 6.5828 8.26611C6.58284 8.15116 6.60552 8.03735 6.64954 7.93117C6.69357 7.82499 6.75807 7.72852 6.83938 7.64727C6.92068 7.56602 7.0172 7.50158 7.12341 7.45762C7.22962 7.41367 7.34344 7.39107 7.45839 7.39111C7.69053 7.39119 7.91313 7.48348 8.07723 7.64768C8.24132 7.81189 8.33347 8.03455 8.33339 8.26669C8.33331 8.49883 8.24102 8.72144 8.07682 8.88553C7.91261 9.04963 7.68995 9.14177 7.45781 9.14169Z" fill="#5D89F0"/>
</svg>
