<svg width="20" height="21" viewBox="0 0 20 21" fill="none" xmlns="http://www.w3.org/2000/svg">
<path d="M11.91 1.41L9.83 3.5H12C14.1217 3.5 16.1566 4.34285 17.6569 5.84315C19.1571 7.34344 20 9.37827 20 11.5H18C18 9.9087 17.3679 8.38258 16.2426 7.25736C15.1174 6.13214 13.5913 5.5 12 5.5H9.83L11.92 7.59L10.5 9L6 4.5L7.41 3.09L10.5 0L11.91 1.41ZM0 10.5V20.5H16V10.5H0ZM2 17.06V13.95C2.60112 13.6009 3.10087 13.1011 3.45 12.5H12.55C12.8991 13.1011 13.3989 13.6009 14 13.95V17.06C13.4075 17.4091 12.915 17.9051 12.57 18.5H3.45C3.0995 17.9025 2.59986 17.4064 2 17.06ZM8 17.5C8.828 17.5 9.5 16.605 9.5 15.5C9.5 14.395 8.828 13.5 8 13.5C7.172 13.5 6.5 14.395 6.5 15.5C6.5 16.605 7.172 17.5 8 17.5Z" fill="#909090"/>
</svg>
