<svg width="20" height="20" viewBox="0 0 20 20" fill="none" xmlns="http://www.w3.org/2000/svg">
<g clip-path="url(#clip0_1993_22253)">
<path d="M15.417 8.33268L19.0837 17.4994H17.2878L16.287 14.9994H12.8787L11.8795 17.4994H10.0845L13.7503 8.33268H15.417ZM8.33366 1.66602V3.33268H13.3337V4.99935H11.6937C11.0508 6.93441 10.0249 8.7202 8.67699 10.2502C9.27808 10.7865 9.93006 11.2629 10.6237 11.6727L9.99783 13.2377C9.10243 12.7298 8.26499 12.126 7.50033 11.4369C6.01165 12.7841 4.24869 13.7928 2.33283 14.3935L1.88616 12.786C3.52769 12.2626 5.04034 11.3988 6.32533 10.251C5.37423 9.1743 4.58205 7.96707 3.97283 6.66602H5.83949C6.30395 7.5234 6.86088 8.32735 7.50033 9.06352C8.54208 7.86277 9.36308 6.4871 9.92533 5.00018L1.66699 4.99935V3.33268H6.66699V1.66602H8.33366ZM14.5837 10.7368L13.5445 13.3327H15.6212L14.5837 10.7368Z" fill="#909090"/>
</g>
<defs>
<clipPath id="clip0_1993_22253">
<rect width="20" height="20" fill="white"/>
</clipPath>
</defs>
</svg>
